<svg width="30" height="20" viewBox="0 0 30 20" fill="none" xmlns="http://www.w3.org/2000/svg">
<g clip-path="url(#clip0_490_8831)">
<path fill-rule="evenodd" clip-rule="evenodd" d="M15.021 5.0002C15.2052 5.0002 15.4344 5.092 15.7104 5.3674L21.0876 10.744C21.96 11.6176 21.4548 12.304 20.3076 12.2146H15.021L18.192 15.4774H24.9474C27.0156 15.5692 28.6674 13.639 26.6022 11.6632L17.1822 2.2876C16.3968 1.5058 15.7104 1 15.021 1C14.3316 1 13.641 1.5058 12.861 2.2876L3.44099 11.6626C1.37339 13.6384 3.02699 15.5686 5.09519 15.4762H11.85L15.021 12.214H9.73619C8.58719 12.3058 8.08139 11.614 8.95619 10.7434L14.3328 5.3674C14.6082 5.092 14.8386 5.0002 15.0222 5.0002" fill="#2A58A3"/>
<path fill-rule="evenodd" clip-rule="evenodd" d="M14.9885 8.13525C15.3749 8.13502 15.7527 8.24936 16.0741 8.46383C16.3955 8.6783 16.6461 8.98325 16.7942 9.34013C16.9422 9.69702 16.9812 10.0898 16.906 10.4688C16.8309 10.8478 16.645 11.196 16.372 11.4694C16.0989 11.7428 15.751 11.9291 15.372 12.0047C14.9931 12.0803 14.6003 12.0418 14.2432 11.8942C13.8862 11.7466 13.5809 11.4963 13.366 11.1752C13.1512 10.8541 13.0364 10.4764 13.0361 10.0901C13.0363 9.57224 13.242 9.07567 13.6081 8.70946C13.9742 8.34326 14.4707 8.13737 14.9885 8.13705" fill="#E6363B"/>
<path fill-rule="evenodd" clip-rule="evenodd" d="M15 19.0001H24.8802C26.4888 18.9539 26.9028 18.5405 28.2354 15.9209C26.397 17.6669 25.9836 17.7587 24.8802 17.7587H5.11985C4.01705 17.7587 3.60305 17.6669 1.76465 15.9209C3.09725 18.5405 3.51125 18.9539 5.11985 19.0001H15Z" fill="#2A58A3"/>
<path d="M23.557 17.0588H23.857V17.2652H23.557V17.0588ZM23.557 16.4636H23.857V16.6706H23.557V16.4636ZM21.6748 16.8944C21.6748 16.5602 22.189 16.5824 22.189 16.5824L22.249 16.7294C22.1974 16.7168 21.934 16.712 21.9232 16.8932C21.9249 16.9394 21.9448 16.9831 21.9785 17.0148C22.0122 17.0465 22.057 17.0636 22.1032 17.0624H22.114C22.1591 17.065 22.2043 17.0571 22.2459 17.0394C22.2875 17.0218 22.3245 16.9947 22.354 16.9604V16.4636H21.52V16.3166H23.365V16.4636H22.6054V16.6844C22.6804 16.6281 22.7727 16.5997 22.8664 16.604C23.0818 16.604 23.263 16.7378 23.263 16.898C23.263 17.1068 22.9684 17.297 22.9684 17.297L22.7788 17.1962C22.7848 17.1962 23.0116 17.0576 23.0116 16.9016C23.011 16.881 23.0064 16.8607 22.998 16.8418C22.9896 16.8229 22.9776 16.8059 22.9626 16.7917C22.9476 16.7775 22.93 16.7664 22.9107 16.759C22.8914 16.7516 22.8708 16.7481 22.8502 16.7486H22.8412C22.7955 16.7535 22.7513 16.7677 22.7112 16.7903C22.6712 16.8129 22.6362 16.8434 22.6084 16.88V17.4146H22.3534V17.1572C22.0714 17.2904 21.6748 17.1698 21.6748 16.8962V16.8944ZM21.4846 15.854V15.9638C21.4397 15.9493 21.3924 15.9436 21.3454 15.947C21.085 15.947 21.1126 16.2716 21.3172 16.3148H21.1528C21.1012 16.2926 20.9626 16.172 20.9686 16.0622C20.974 15.8684 21.2686 15.7586 21.4846 15.8558V15.854ZM20.8528 16.3172H21.4792V16.4648H21.3322V17.411H21.0706V16.463H20.8552V16.316L20.8528 16.3172ZM20.368 16.664C20.4028 16.6675 20.4379 16.6625 20.4705 16.6497C20.503 16.6369 20.5321 16.6165 20.5552 16.5902C20.5726 16.4486 20.2012 16.3922 20.2012 16.5602C20.2042 16.6226 20.2834 16.664 20.368 16.664ZM19.753 16.319H20.8498V16.466H20.7166C20.9494 16.7006 20.7334 17.0498 20.3488 17.072C20.3596 17.072 20.4424 17.132 20.5048 17.1692C20.6152 17.2292 20.7142 17.285 20.7196 17.2892L20.5726 17.4242C20.3182 17.327 20.1016 17.1416 19.9042 16.991L20.068 16.871L20.164 16.931C20.1985 16.9471 20.2372 16.9515 20.2744 16.9436C20.5012 16.907 20.5384 16.8062 20.5438 16.7582C20.2804 16.8944 19.864 16.6982 20.02 16.4642H19.759L19.753 16.319ZM18.3244 16.319H19.7584V16.466H19.4866V16.766H18.8836C18.8487 16.762 18.8136 16.772 18.786 16.7938C18.7584 16.8156 18.7407 16.8475 18.7366 16.8824V16.8884C18.7366 17.087 19.1074 17.1578 19.1812 17.1194C19.1804 17.0953 19.1844 17.0712 19.1931 17.0487C19.2018 17.0262 19.215 17.0056 19.2317 16.9883C19.2485 16.9709 19.2687 16.9571 19.2909 16.9477C19.3131 16.9383 19.337 16.9334 19.3612 16.9334H19.3828C19.5754 16.9334 19.609 17.1614 19.4392 17.207C19.4596 17.2463 19.4843 17.2831 19.513 17.3168C19.5526 17.3708 19.624 17.4488 19.624 17.4488H19.357C19.357 17.4488 19.3144 17.3888 19.2916 17.351C19.2688 17.3132 19.2634 17.2952 19.2466 17.2676C19.2352 17.2718 18.4792 17.2952 18.484 16.871C18.484 16.7348 18.649 16.6232 18.8386 16.6232H19.225V16.4636H18.325V16.3166L18.3244 16.319ZM17.8834 16.9676V17.0948L17.2546 17.4092L17.1076 17.267L17.8834 16.9676ZM17.6266 17.1008C17.2894 17.0966 17.1814 16.8662 17.1814 16.8008V16.4648H16.9936V16.3178H18.295V16.4648H18.148V17.411H17.893V17.051C17.8123 17.0923 17.7219 17.111 17.6314 17.105L17.6266 17.1008ZM17.89 16.463H17.4412V16.808C17.4412 16.8872 17.4976 16.9628 17.6416 16.9676C17.6891 16.9679 17.7361 16.9582 17.7796 16.9392C17.8231 16.9202 17.8621 16.8923 17.8942 16.8572L17.89 16.463ZM16.363 16.316H16.9888V16.463H16.8412V17.4092H16.5802V16.463H16.366V16.316H16.363ZM15.8326 16.5998V16.727C15.7726 16.7318 15.484 16.706 15.484 16.5116C15.484 16.3808 15.6538 16.2914 15.844 16.2962C16.0906 16.2962 16.2982 16.4498 16.2982 16.631C16.2982 16.8122 16.0582 16.976 15.8272 16.967C15.8272 16.967 15.901 17.081 16.1134 17.0762C16.2069 17.0723 16.2987 17.0497 16.3834 17.0099C16.4681 16.97 16.544 16.9136 16.6066 16.844V17.084C16.207 17.3402 15.5614 17.2136 15.451 16.8062C15.5296 16.8249 15.6102 16.8342 15.691 16.8338C15.8554 16.8338 16.045 16.7738 16.045 16.6136C16.0463 16.5677 16.0295 16.523 15.9982 16.4894C15.9668 16.4557 15.9235 16.4357 15.8776 16.4336C15.8672 16.4328 15.8568 16.4328 15.8464 16.4336C15.6844 16.4396 15.6784 16.6028 15.8398 16.6028L15.8326 16.5998ZM14.7694 17.1002C14.4328 17.0966 14.3284 16.8656 14.3284 16.8002V16.4672H14.1412V16.3202H15.4414V16.4672H15.2944V17.4134H15.0394V17.0534C14.9574 17.0954 14.8655 17.1141 14.7736 17.1074L14.7694 17.1002ZM15.0334 16.4624H14.5798V16.8074C14.5798 16.8866 14.6362 16.9622 14.7814 16.967C14.8288 16.9672 14.8757 16.9575 14.9191 16.9385C14.9625 16.9195 15.0014 16.8916 15.0334 16.8566V16.4624ZM12.5464 17.0624H12.8464V17.2688H12.5464V17.0624ZM12.5464 16.4672H12.8464V16.6742H12.5464V16.4672ZM10.6618 16.8998C10.6618 16.565 11.1766 16.5872 11.1766 16.5872L11.2366 16.7342C11.185 16.7216 10.9216 16.7174 10.9102 16.898C10.9116 16.9212 10.9176 16.9438 10.9278 16.9646C10.938 16.9854 10.9522 17.004 10.9696 17.0193C10.987 17.0346 11.0072 17.0464 11.0292 17.0539C11.0511 17.0614 11.0743 17.0645 11.0974 17.063H11.1058C11.1509 17.066 11.1962 17.0584 11.2378 17.0408C11.2795 17.0232 11.3165 16.9961 11.3458 16.9616V16.4672H10.5094V16.3202H12.3532V16.4672H11.5942V16.688C11.669 16.6318 11.7611 16.6034 11.8546 16.6076C12.07 16.6076 12.2518 16.7414 12.2518 16.9016C12.2518 17.1104 11.9518 17.3006 11.9518 17.3006L11.7628 17.1938C11.7682 17.1938 11.995 17.0552 11.995 16.8998C11.9939 16.8581 11.9763 16.8185 11.946 16.7897C11.9158 16.7609 11.8753 16.7453 11.8336 16.7462H11.8252C11.7796 16.7512 11.7355 16.7654 11.6955 16.788C11.6556 16.8106 11.6207 16.8411 11.593 16.8776V17.4122H11.3374V17.1548C11.065 17.2904 10.6618 17.1698 10.6618 16.8962V16.8998ZM9.0784 16.3226H10.5064V16.4696H10.3594V17.4158H10.0978V16.8548H9.6442V17.0018C9.64522 17.0103 9.64443 17.0189 9.64187 17.027C9.63932 17.0352 9.63506 17.0426 9.62939 17.049C9.62371 17.0554 9.61674 17.0604 9.60895 17.0639C9.60116 17.0673 9.59272 17.0691 9.5842 17.069C9.57901 17.0696 9.57378 17.0696 9.5686 17.069C9.4804 17.0648 9.2254 16.829 9.2254 16.778C9.2254 16.7048 9.319 16.7048 9.3304 16.7048H10.093V16.4648H9.079L9.0784 16.3226ZM8.446 16.3226H9.0724V16.4696H8.9254V17.4158H8.665V16.463H8.449L8.446 16.3226ZM8.041 16.4696H7.6126V16.793H8.0434L8.041 16.4696ZM7.021 16.3226H8.449V16.4696H8.305V17.4158H8.041V16.9358H7.6126V17.063C7.61268 17.0727 7.61086 17.0822 7.60725 17.0911C7.60365 17.1 7.59832 17.1081 7.59158 17.115C7.58484 17.1218 7.57681 17.1273 7.56796 17.131C7.55911 17.1348 7.54961 17.1368 7.54 17.1368H7.5304C7.4572 17.1368 7.1626 16.8968 7.1626 16.85C7.1626 16.8032 7.2562 16.796 7.2622 16.796H7.3612V16.4678H7.021V16.3226Z" fill="#E6363B"/>
</g>
<defs>
<clipPath id="clip0_490_8831">
<rect width="26.4708" height="18" fill="white" transform="translate(1.76465 1)"/>
</clipPath>
</defs>
</svg>
