<svg width="14" height="15" viewBox="0 0 14 15" fill="none" xmlns="http://www.w3.org/2000/svg">
<path d="M13.5 6.66605V11.6661C13.5 12.3291 13.2366 12.965 12.7678 13.4338C12.2989 13.9027 11.663 14.1661 11 14.1661H7.5C7.36739 14.1661 7.24022 14.1134 7.14645 14.0196C7.05268 13.9258 7 13.7987 7 13.6661C7 13.5334 7.05268 13.4063 7.14645 13.3125C7.24022 13.2187 7.36739 13.1661 7.5 13.1661H11C11.3978 13.1661 11.7794 13.008 12.0607 12.7267C12.342 12.4454 12.5 12.0639 12.5 11.6661H11C10.6022 11.6661 10.2206 11.508 9.93934 11.2267C9.65804 10.9454 9.5 10.5639 9.5 10.1661V7.66605C9.5 7.26823 9.65804 6.8867 9.93934 6.60539C10.2206 6.32409 10.6022 6.16605 11 6.16605H12.4781C12.3835 5.12664 11.9951 4.13561 11.3582 3.30871C10.7214 2.48181 9.86242 1.85318 8.88164 1.49626C7.90085 1.13934 6.83875 1.06885 5.8194 1.29303C4.80005 1.51722 3.86553 2.02682 3.125 2.7623C2.20416 3.671 1.6362 4.87736 1.5225 6.16605H3C3.39783 6.16605 3.77936 6.32409 4.06066 6.60539C4.34197 6.8867 4.5 7.26823 4.5 7.66605V10.1661C4.5 10.5639 4.34197 10.9454 4.06066 11.2267C3.77936 11.508 3.39783 11.6661 3 11.6661H2C1.60218 11.6661 1.22064 11.508 0.93934 11.2267C0.658035 10.9454 0.5 10.5639 0.5 10.1661V6.66605C0.501402 5.37849 0.884765 4.12029 1.60156 3.0507C2.31836 1.98111 3.33638 1.14822 4.52674 0.657459C5.71711 0.166697 7.02632 0.0401242 8.28866 0.293761C9.55099 0.547397 10.7097 1.16984 11.6181 2.0823C12.2179 2.68499 12.6929 3.40011 13.0158 4.18667C13.3387 4.97324 13.5033 5.81579 13.5 6.66605Z" fill="#2B3990"/>
</svg>
