<svg width="32" height="24" viewBox="0 0 32 24" fill="none" xmlns="http://www.w3.org/2000/svg">
<path d="M0 24V17.6842C0 15.7661 0.339181 13.731 1.01754 11.5789C1.7193 9.40351 2.72515 7.30994 4.03509 5.29825C5.36842 3.26316 6.97076 1.49707 8.8421 0L13.3333 3.64912C11.8596 5.75438 10.5731 7.95322 9.47368 10.2456C8.39766 12.5146 7.85965 14.9474 7.85965 17.5439V24H0ZM17.9649 24V17.6842C17.9649 15.7661 18.3041 13.731 18.9825 11.5789C19.6842 9.40351 20.6901 7.30994 22 5.29825C23.3333 3.26316 24.9357 1.49707 26.807 0L31.2982 3.64912C29.8246 5.75438 28.538 7.95322 27.4386 10.2456C26.3626 12.5146 25.8246 14.9474 25.8246 17.5439V24H17.9649Z" fill="#2B3990"/>
</svg>
