<svg width="16" height="17" viewBox="0 0 16 17" fill="none" xmlns="http://www.w3.org/2000/svg">
<g clip-path="url(#clip0_1870_1468)">
<path d="M8 2.10664C10.1375 2.10664 10.3906 2.11602 11.2313 2.15352C12.0125 2.18789 12.4344 2.31914 12.7156 2.42852C13.0875 2.57227 13.3563 2.74727 13.6344 3.02539C13.9156 3.30664 14.0875 3.57227 14.2313 3.94414C14.3406 4.22539 14.4719 4.65039 14.5063 5.42852C14.5438 6.27227 14.5531 6.52539 14.5531 8.65977C14.5531 10.7973 14.5438 11.0504 14.5063 11.891C14.4719 12.6723 14.3406 13.0941 14.2313 13.3754C14.0875 13.7473 13.9125 14.016 13.6344 14.2941C13.3531 14.5754 13.0875 14.7473 12.7156 14.891C12.4344 15.0004 12.0094 15.1316 11.2313 15.166C10.3875 15.2035 10.1344 15.2129 8 15.2129C5.8625 15.2129 5.60938 15.2035 4.76875 15.166C3.9875 15.1316 3.56563 15.0004 3.28438 14.891C2.9125 14.7473 2.64375 14.5723 2.36563 14.2941C2.08438 14.0129 1.9125 13.7473 1.76875 13.3754C1.65938 13.0941 1.52813 12.6691 1.49375 11.891C1.45625 11.0473 1.44688 10.7941 1.44688 8.65977C1.44688 6.52227 1.45625 6.26914 1.49375 5.42852C1.52813 4.64727 1.65938 4.22539 1.76875 3.94414C1.9125 3.57227 2.0875 3.30352 2.36563 3.02539C2.64688 2.74414 2.9125 2.57227 3.28438 2.42852C3.56563 2.31914 3.99063 2.18789 4.76875 2.15352C5.60938 2.11602 5.8625 2.10664 8 2.10664ZM8 0.666016C5.82813 0.666016 5.55625 0.675391 4.70313 0.712891C3.85313 0.750391 3.26875 0.887891 2.7625 1.08477C2.23438 1.29102 1.7875 1.56289 1.34375 2.00977C0.896875 2.45352 0.625 2.90039 0.41875 3.42539C0.221875 3.93477 0.084375 4.51602 0.046875 5.36602C0.009375 6.22227 0 6.49414 0 8.66602C0 10.8379 0.009375 11.1098 0.046875 11.9629C0.084375 12.8129 0.221875 13.3973 0.41875 13.9035C0.625 14.4316 0.896875 14.8785 1.34375 15.3223C1.7875 15.766 2.23438 16.041 2.75938 16.2441C3.26875 16.441 3.85 16.5785 4.7 16.616C5.55313 16.6535 5.825 16.6629 7.99688 16.6629C10.1688 16.6629 10.4406 16.6535 11.2938 16.616C12.1438 16.5785 12.7281 16.441 13.2344 16.2441C13.7594 16.041 14.2063 15.766 14.65 15.3223C15.0938 14.8785 15.3688 14.4316 15.5719 13.9066C15.7688 13.3973 15.9063 12.816 15.9438 11.966C15.9813 11.1129 15.9906 10.841 15.9906 8.66914C15.9906 6.49727 15.9813 6.22539 15.9438 5.37227C15.9063 4.52227 15.7688 3.93789 15.5719 3.43164C15.375 2.90039 15.1031 2.45352 14.6563 2.00977C14.2125 1.56602 13.7656 1.29102 13.2406 1.08789C12.7313 0.891016 12.15 0.753516 11.3 0.716016C10.4438 0.675391 10.1719 0.666016 8 0.666016Z" fill="#2B3990"/>
<path d="M8 4.55664C5.73125 4.55664 3.89062 6.39727 3.89062 8.66602C3.89062 10.9348 5.73125 12.7754 8 12.7754C10.2688 12.7754 12.1094 10.9348 12.1094 8.66602C12.1094 6.39727 10.2688 4.55664 8 4.55664ZM8 11.3316C6.52813 11.3316 5.33437 10.1379 5.33437 8.66602C5.33437 7.19414 6.52813 6.00039 8 6.00039C9.47188 6.00039 10.6656 7.19414 10.6656 8.66602C10.6656 10.1379 9.47188 11.3316 8 11.3316Z" fill="#2B3990"/>
<path d="M13.2312 4.39419C13.2312 4.92544 12.8 5.35357 12.2719 5.35357C11.7406 5.35357 11.3125 4.92232 11.3125 4.39419C11.3125 3.86294 11.7438 3.43481 12.2719 3.43481C12.8 3.43481 13.2312 3.86607 13.2312 4.39419Z" fill="#2B3990"/>
</g>
<defs>
<clipPath id="clip0_1870_1468">
<rect width="16" height="16" fill="white" transform="translate(0 0.666016)"/>
</clipPath>
</defs>
</svg>
