<svg width="16" height="17" viewBox="0 0 16 17" fill="none" xmlns="http://www.w3.org/2000/svg">
<g clip-path="url(#clip0_1870_442)">
<path d="M14.8156 0.666016H1.18125C0.528125 0.666016 0 1.18164 0 1.81914V15.5098C0 16.1473 0.528125 16.666 1.18125 16.666H14.8156C15.4688 16.666 16 16.1473 16 15.5129V1.81914C16 1.18164 15.4688 0.666016 14.8156 0.666016ZM4.74687 14.3004H2.37188V6.66289H4.74687V14.3004ZM3.55938 5.62227C2.79688 5.62227 2.18125 5.00664 2.18125 4.24727C2.18125 3.48789 2.79688 2.87227 3.55938 2.87227C4.31875 2.87227 4.93437 3.48789 4.93437 4.24727C4.93437 5.00352 4.31875 5.62227 3.55938 5.62227ZM13.6344 14.3004H11.2625V10.5879C11.2625 9.70352 11.2469 8.56289 10.0281 8.56289C8.79375 8.56289 8.60625 9.52852 8.60625 10.5254V14.3004H6.2375V6.66289H8.5125V7.70664H8.54375C8.85938 7.10664 9.63438 6.47227 10.7875 6.47227C13.1906 6.47227 13.6344 8.05352 13.6344 10.1098V14.3004Z" fill="#2B3990"/>
</g>
<defs>
<clipPath id="clip0_1870_442">
<rect width="16" height="16" fill="white" transform="translate(0 0.666016)"/>
</clipPath>
</defs>
</svg>
