<svg width="14" height="11" viewBox="0 0 14 11" fill="none" xmlns="http://www.w3.org/2000/svg">
<path d="M13 0.666016H1C0.867392 0.666016 0.740215 0.718694 0.646447 0.812462C0.552678 0.906231 0.5 1.03341 0.5 1.16602V9.66602C0.5 9.93123 0.605357 10.1856 0.792893 10.3731C0.98043 10.5607 1.23478 10.666 1.5 10.666H12.5C12.7652 10.666 13.0196 10.5607 13.2071 10.3731C13.3946 10.1856 13.5 9.93123 13.5 9.66602V1.16602C13.5 1.03341 13.4473 0.906231 13.3536 0.812462C13.2598 0.718694 13.1326 0.666016 13 0.666016ZM12.5 9.66602H1.5V2.30289L6.66187 7.03477C6.75412 7.11944 6.87478 7.16643 7 7.16643C7.12522 7.16643 7.24588 7.11944 7.33813 7.03477L12.5 2.30289V9.66602Z" fill="#2B3990"/>
</svg>
