<svg width="12" height="15" viewBox="0 0 12 15" fill="none" xmlns="http://www.w3.org/2000/svg">
<path d="M10.5 13.666H7.40875C7.92803 13.2023 8.41774 12.7066 8.875 12.1816C10.5906 10.2085 11.5 8.12852 11.5 6.16602C11.5 4.70732 10.9205 3.30838 9.88909 2.27693C8.85764 1.24548 7.45869 0.666016 6 0.666016C4.54131 0.666016 3.14236 1.24548 2.11091 2.27693C1.07946 3.30838 0.5 4.70732 0.5 6.16602C0.5 8.12852 1.40688 10.2085 3.125 12.1816C3.58226 12.7066 4.07197 13.2023 4.59125 13.666H1.5C1.36739 13.666 1.24021 13.7187 1.14645 13.8125C1.05268 13.9062 1 14.0334 1 14.166C1 14.2986 1.05268 14.4258 1.14645 14.5196C1.24021 14.6133 1.36739 14.666 1.5 14.666H10.5C10.6326 14.666 10.7598 14.6133 10.8536 14.5196C10.9473 14.4258 11 14.2986 11 14.166C11 14.0334 10.9473 13.9062 10.8536 13.8125C10.7598 13.7187 10.6326 13.666 10.5 13.666ZM6 4.16602C6.39556 4.16602 6.78224 4.28331 7.11114 4.50308C7.44004 4.72284 7.69638 5.0352 7.84776 5.40065C7.99913 5.7661 8.03874 6.16823 7.96157 6.5562C7.8844 6.94416 7.69392 7.30052 7.41421 7.58023C7.13451 7.85993 6.77814 8.05042 6.39018 8.12759C6.00222 8.20476 5.60009 8.16515 5.23463 8.01377C4.86918 7.8624 4.55682 7.60605 4.33706 7.27716C4.1173 6.94826 4 6.56158 4 6.16602C4 5.63558 4.21071 5.12687 4.58579 4.7518C4.96086 4.37673 5.46957 4.16602 6 4.16602Z" fill="#2B3990"/>
</svg>
