<svg width="13" height="13" viewBox="0 0 13 13" fill="none" xmlns="http://www.w3.org/2000/svg">
<path d="M12.4925 9.60863C12.3811 10.4555 11.9652 11.2329 11.3224 11.7955C10.6797 12.3582 9.8542 12.6677 9.00001 12.6661C4.03751 12.6661 5.6554e-06 8.62863 5.6554e-06 3.66613C-0.00152558 2.81194 0.307935 1.9864 0.870589 1.34369C1.43324 0.700988 2.21061 0.285075 3.05751 0.173633C3.27166 0.147484 3.48854 0.191297 3.67575 0.298532C3.86296 0.405768 4.01047 0.570674 4.09626 0.768633L5.41626 3.71551V3.72301C5.48194 3.87454 5.50906 4.03998 5.49521 4.20456C5.48136 4.36913 5.42696 4.52771 5.33688 4.66613C5.32563 4.68301 5.31376 4.69863 5.30126 4.71426L4.00001 6.25676C4.46813 7.20801 5.46313 8.19426 6.42688 8.66363L7.94813 7.36926C7.96307 7.3567 7.97872 7.34501 7.99501 7.33426C8.13331 7.24201 8.29244 7.1857 8.45799 7.17042C8.62353 7.15514 8.79028 7.18138 8.94313 7.24676L8.95126 7.25051L11.8956 8.56988C12.0939 8.65537 12.2592 8.80274 12.3668 8.98998C12.4744 9.17722 12.5185 9.39426 12.4925 9.60863Z" fill="#2B3990"/>
</svg>
