<svg width="16" height="17" viewBox="0 0 16 17" fill="none" xmlns="http://www.w3.org/2000/svg">
<path d="M7.4694 12.0306L2.4694 7.0306C2.3285 6.8897 2.24935 6.6986 2.24935 6.49935C2.24935 6.30009 2.3285 6.10899 2.4694 5.9681C2.6103 5.8272 2.80139 5.74805 3.00065 5.74805C3.19991 5.74805 3.391 5.8272 3.5319 5.9681L8.00003 10.4375L12.4694 5.96935C12.5392 5.89958 12.622 5.84424 12.7131 5.80649C12.8043 5.76873 12.902 5.7493 13.0007 5.7493C13.0993 5.7493 13.197 5.76873 13.2882 5.80649C13.3793 5.84424 13.4621 5.89958 13.5319 5.96935C13.6017 6.03911 13.657 6.12194 13.6948 6.21309C13.7325 6.30424 13.752 6.40194 13.752 6.5006C13.752 6.59926 13.7325 6.69696 13.6948 6.78811C13.657 6.87926 13.6017 6.96208 13.5319 7.03185L8.5319 12.0318C8.46214 12.1017 8.37928 12.1571 8.28807 12.1948C8.19686 12.2326 8.0991 12.2519 8.00039 12.2518C7.90168 12.2517 7.80396 12.2321 7.71285 12.1941C7.62173 12.1562 7.539 12.1006 7.4694 12.0306Z" fill="#262A2E"/>
</svg>
